PathFileType	4	(X/Y/Z)	./resultDataOpenSim/trcMotMarkerGrf/sub06/qtm-05-06.trc
DataRate	CameraRate	NumFrames	NumMarkers	Units	OrigDataRate	OrigDataStartFrame	OrigNumFrames
250.000000	250.000000	6	24	m	250.000000	261	521
Frame#	Time	L.Toe.Tip			R.Toe.Tip			L.Ankle.Lat			R.Ankle.Lat			L.Ankle.Med			R.Ankle.Med			L.Heel			R.Heel			L.Knee.Lat			R.Knee.Lat			L.Knee.Med			R.Knee.Med			L.Thigh.Upper			R.Thigh.Upper			L.ASIS			R.ASIS			V.Sacral			L.Acromium			R.Acromium			C7			L.Elbow			R.Elbow			L.Wrist.Lat			R.Wrist.Lat
		X1	Y1	Z1	X2	Y2	Z2	X3	Y3	Z3	X4	Y4	Z4	X5	Y5	Z5	X6	Y6	Z6	X7	Y7	Z7	X8	Y8	Z8	X9	Y9	Z9	X10	Y10	Z10	X11	Y11	Z11	X12	Y12	Z12	X13	Y13	Z13	X14	Y14	Z14	X15	Y15	Z15	X16	Y16	Z16	X17	Y17	Z17	X18	Y18	Z18	X19	Y19	Z19	X20	Y20	Z20	X21	Y21	Z21	X22	Y22	Z22	X23	Y23	Z23	X24	Y24	Z24

261	1.04	0.060363694	-0.06520117	-0.032962879	0.69000995	0.10958892	0.16163028	-0.054267225	-0.0070647875	-0.049288264	0.55462727	0.096180052	0.16748358	-0.044119081	0.0077160233	0.036502465	0.57820933	0.12638388	0.082892512	-0.12808847	-0.019629986	0.0010882288	0.51777483	0.060486401	0.098160468	0.077987312	0.34232502	-0.066699558	0.49832142	0.48327029	0.18605779	0.067586893	0.34166279	0.054519426	0.48555881	0.45954309	0.064699894	0.17700887	0.71103388	-0.13435608	0.22720308	0.73065164	0.21664448	0.26653042	0.75352516	-0.10045247	0.29928346	0.77714811	0.14109111	0.10173379	0.83692327	0.045741602	0.24810526	1.245361	-0.15107633	0.22340656	1.2328426	0.21094187	0.15717796	1.2771144	0.022714728	0.31380511	0.92694482	-0.22980653	0.066628086	0.96179803	0.27730735	0.55157676	0.88726716	-0.15339816	0.13356077	0.73839934	0.34329422
262	1.044	0.06037591	-0.065224284	-0.032977587	0.70568271	0.11112352	0.16128147	-0.053655542	-0.0064422025	-0.049510495	0.57041274	0.095635657	0.16724121	-0.043538885	0.0082471756	0.036320487	0.59340158	0.12660803	0.082696084	-0.12765494	-0.018328617	0.00077640124	0.53409927	0.059569512	0.097842576	0.081682588	0.34189183	-0.066734065	0.5046746	0.48099458	0.18591078	0.07161056	0.34096396	0.054446517	0.49246589	0.45737637	0.064421459	0.18153088	0.70997369	-0.13397202	0.23408071	0.72913204	0.21670871	0.27162092	0.75222136	-0.10070981	0.30619738	0.77569051	0.1408489	0.1079104	0.83568529	0.046904114	0.25438214	1.2441603	-0.15079398	0.23005726	1.2314239	0.21138012	0.16393762	1.27594	0.022946593	0.32259949	0.92599057	-0.22928703	0.072739813	0.96089905	0.27769839	0.56030279	0.88974628	-0.15175136	0.13805109	0.73719318	0.3441166
263	1.048	0.060392905	-0.065239828	-0.032995667	0.72065262	0.1127001	0.16076705	-0.053006986	-0.0057764219	-0.049715212	0.58555342	0.095147125	0.16693063	-0.042859927	0.0088495437	0.036166783	0.60790257	0.12690688	0.082548297	-0.12717894	-0.01697038	0.000476397	0.54965997	0.058734982	0.097556505	0.085681727	0.34143788	-0.06684617	0.51103793	0.47861165	0.18573647	0.075832572	0.34027723	0.054310174	0.49930965	0.45516425	0.064114907	0.186145	0.70889767	-0.13357688	0.24107599	0.727619	0.21683555	0.27678554	0.75092067	-0.1009594	0.31315157	0.77417418	0.14064738	0.11414379	0.83446961	0.048031396	0.2606657	1.2429708	-0.15048192	0.23674301	1.2299962	0.21183758	0.17061945	1.2747747	0.023322001	0.33056608	0.92510821	-0.22798201	0.07893438	0.95995658	0.27813969	0.56893402	0.89212405	-0.15012909	0.14270281	0.73598225	0.34495181
264	1.052	0.060411429	-0.065253764	-0.033014753	0.7348874	0.11427864	0.16007588	-0.05233285	-0.0050660896	-0.049922985	0.59999735	0.094683377	0.16652095	-0.04210049	0.009506439	0.036025726	0.62163965	0.1272061	0.082390791	-0.12665534	-0.015546517	0.00019003351	0.56440493	0.057981547	0.097248133	0.089822921	0.34096809	-0.066969633	0.51742468	0.47615925	0.18553706	0.080298578	0.33957722	0.054099924	0.5061035	0.45292813	0.063780319	0.1908508	0.70780377	-0.13315282	0.24822394	0.72612822	0.21702837	0.28203136	0.74963358	-0.10120402	0.3200631	0.77265001	0.14043049	0.120408	0.8332999	0.049137025	0.26695527	1.2417983	-0.15013881	0.24346612	1.2285619	0.21231785	0.17715954	1.273655	0.02393077	0.33808598	0.92426998	-0.22626854	0.085214433	0.95896561	0.27863801	0.57747865	0.89440365	-0.14852726	0.14758874	0.73480308	0.3458311
265	1.056	0.060432101	-0.065268136	-0.03303261	0.74836414	0.11579741	0.15921836	-0.05164225	-0.0043110866	-0.050154616	0.61372937	0.094185563	0.16598374	-0.041311853	0.010182286	0.035870685	0.63456055	0.12740684	0.082171854	-0.12607608	-0.014048782	-8.0505539e-05	0.57830696	0.057265158	0.096913781	0.093962408	0.34047807	-0.067044172	0.52386434	0.47369266	0.18531728	0.084934309	0.33888025	0.053866704	0.51285422	0.45068556	0.06340894	0.19564993	0.70669527	-0.13269219	0.25550542	0.7246623	0.21726936	0.28732656	0.74837299	-0.10143607	0.32689172	0.77116394	0.14016771	0.12665978	0.83219068	0.050252512	0.27325501	1.2406504	-0.14976126	0.25023184	1.2271268	0.21282278	0.18362706	1.2725754	0.02469736	0.34583593	0.92343468	-0.2248065	0.091579715	0.95793078	0.27919029	0.58594568	0.89658829	-0.14693708	0.15273122	0.73366305	0.34676114
266	1.06	0.060456334	-0.065282003	-0.033048681	0.76105568	0.1171941	0.15820247	-0.050924661	-0.0035063556	-0.050408169	0.62672803	0.09361415	0.16532666	-0.040512264	0.010867598	0.035691631	0.64665673	0.12743397	0.081870557	-0.12543503	-0.012472849	-0.00033561147	0.59135287	0.056527169	0.096574833	0.098085917	0.33996378	-0.067063471	0.53038661	0.47127095	0.185078	0.089596912	0.33823566	0.05368884	0.51956987	0.44845745	0.062993127	0.20054916	0.70557825	-0.13219551	0.26292367	0.72324044	0.21756414	0.29260179	0.74715436	-0.10162794	0.33369811	0.7697336	0.13989038	0.13286683	0.83113948	0.051397225	0.27956703	1.239534	-0.14934813	0.25704428	1.2257002	0.21335214	0.19012436	1.2715125	0.025495885	0.35421041	0.92256978	-0.22399259	0.098030752	0.95686399	0.27978987	0.59433971	0.89867821	-0.14535442	0.15807603	0.73253387	0.34771394
